{"asset":{"version":"2.0","generator":"VECTARY"},"nodes":[{"translation":[0,0,0],"rotation":[-0.7071067811865475,0,0,0.7071067811865476],"scale":[0.001,0.001,0.001],"name":"spaceship","mesh":0}],"meshes":[{"primitives":[{"mode":4,"attributes":{"POSITION":0,"NORMAL":2},"material":0,"indices":1}]}],"accessors":[{"bufferView":0,"byteOffset":0,"componentType":5126,"count":1028,"max":[10000000,10000000,10000000],"min":[-10000000,-10000000,-10000000],"type":"VEC3"},{"bufferView":1,"byteOffset":0,"componentType":5125,"count":6192,"max":[6192],"min":[0],"type":"SCALAR"},{"bufferView":2,"byteOffset":0,"componentType":5126,"count":1028,"max":[1,1,1],"min":[-1,-1,-1],"type":"VEC3"}],"bufferViews":[{"buffer":0,"byteOffset":0,"byteLength":12336,"target":34962},{"buffer":0,"byteOffset":12336,"byteLength":24768,"target":34963},{"buffer":0,"byteOffset":37104,"byteLength":12336,"target":34962}],"materials":[{"pbrMetallicRoughness":{"baseColorFactor":[1,0.5882352941176471,0.12156862745098039,1],"roughnessFactor":0.9,"metallicFactor":0.5},"name":""}],"scenes":[{"nodes":[0],"name":"RocketIcon"}],"buffers":[{"byteLength":49440,"uri":"RocketIcon.bin"}]}