{"asset":{"version":"2.0","generator":"VECTARY"},"scene":0,"nodes":[{"translation":[-0.005045922401517635,0.06163172867808634,-0.014000000000000025],"scale":[0.0009999999999999998,0.0009999999999999998,0.001],"rotation":[1.3877787807814457e-16,2.7755575615628914e-16,-0.9238795325112867,0.3826834323650897],"name":"Piano","children":[1,2,3,4,5,6,7,8,9,10,11,12,13]},{"translation":[1.4210854715202004e-14,2.842170943040401e-14,-1.0509738482436128e-45],"scale":[1,1,1],"rotation":[0,0,0,1],"name":"keys_white","mesh":0},{"translation":[1.4210854715202004e-14,2.842170943040401e-14,-1.0509738482436128e-45],"scale":[1,1,1],"rotation":[0,0,0,1],"name":"keys_black","mesh":1},{"translation":[1.4210854715202004e-14,2.842170943040401e-14,-1.0509738482436128e-45],"scale":[1,1,1],"rotation":[0,0,0,1],"name":"knobs_plastic","mesh":2},{"translation":[1.4210854715202004e-14,2.842170943040401e-14,-1.0509738482436128e-45],"scale":[1,1,1],"rotation":[0,0,0,1],"name":"knobs_metal","mesh":3},{"translation":[0.13145828247070312,-14.578578591346712,-3.686086893081665],"scale":[1,1,1],"rotation":[0,0,0,1],"name":"body","mesh":4},{"translation":[1.4210854715202004e-14,2.842170943040401e-14,-1.0509738482436128e-45],"scale":[1,1,1],"rotation":[0,0,0,1],"name":"body_bottom_part","mesh":5},{"translation":[1.4210854715202004e-14,2.842170943040401e-14,-1.0509738482436128e-45],"scale":[1,1,1],"rotation":[0,0,0,1],"name":"woods","mesh":6},{"translation":[1.4210854715202004e-14,2.842170943040401e-14,-1.0509738482436128e-45],"scale":[1,1,1],"rotation":[0,0,0,1],"name":"Display_trim","mesh":7},{"translation":[1.4210854715202004e-14,2.842170943040401e-14,-1.0509738482436128e-45],"scale":[1,1,1],"rotation":[0,0,0,1],"name":"Display","mesh":8},{"translation":[1.4210854715202004e-14,2.842170943040401e-14,-1.0509738482436128e-45],"scale":[1,1,1],"rotation":[0,0,0,1],"name":"Buttons","mesh":9},{"translation":[1.4210854715202004e-14,2.842170943040401e-14,-1.0509738482436128e-45],"scale":[1,1,1],"rotation":[0,0,0,1],"name":"Connectors","mesh":10},{"translation":[1.4210854715202004e-14,2.842170943040401e-14,-1.0509738482436128e-45],"scale":[1,1,1],"rotation":[0,0,0,1],"name":"Legs","mesh":11},{"translation":[1.4210854715202004e-14,2.842170943040401e-14,-1.0509738482436128e-45],"scale":[1,1,1],"rotation":[0,0,0,1],"name":"display_content","mesh":12},{"translation":[0,0,0],"scale":[0.001,0.001,0.001],"rotation":[-0.7071067811865475,0,0,0.7071067811865476],"name":"Music_Note","mesh":13},{"translation":[0,0,0],"scale":[0.001,0.001,0.001],"rotation":[-0.7071067811865475,0,0,0.7071067811865476],"name":"Music_Note 1","mesh":14},{"translation":[0,0,0],"scale":[0.001,0.001,0.001],"rotation":[-0.7071067811865475,0,0,0.7071067811865476],"name":"Music_Note 2","mesh":15},{"translation":[0,0,0],"scale":[0.001,0.001,0.001],"rotation":[-0.7071067811865475,0,0,0.7071067811865476],"name":"Bass_Clef","mesh":16},{"translation":[0,0,0],"scale":[0.001,0.001,0.001],"rotation":[-0.7071067811865475,0,0,0.7071067811865476],"name":"Music_Note 3","mesh":17}],"materials":[{"pbrMetallicRoughness":{"baseColorFactor":[0.8980392156862745,0.8627450980392157,0.7725490196078432,1],"metallicFactor":0,"roughnessFactor":0.8},"name":"keys_white material","emissiveFactor":[0,0,0],"alphaMode":"OPAQUE","doubleSided":false},{"pbrMetallicRoughness":{"baseColorFactor":[0.1450980392156863,0.14901960784313725,0.15294117647058825,1],"metallicFactor":0,"roughnessFactor":0.8},"name":"keys_black material","emissiveFactor":[0,0,0],"alphaMode":"OPAQUE","doubleSided":false},{"pbrMetallicRoughness":{"baseColorFactor":[0.7568627450980392,0.28627450980392155,0.3254901960784314,1],"metallicFactor":0,"roughnessFactor":0.8},"name":"knobs_plastic material","emissiveFactor":[0,0,0],"alphaMode":"OPAQUE","doubleSided":false},{"pbrMetallicRoughness":{"baseColorFactor":[1,1,1,1],"metallicFactor":1,"roughnessFactor":0.8},"name":"knobs_metal material","emissiveFactor":[0,0,0],"alphaMode":"OPAQUE","doubleSided":false},{"pbrMetallicRoughness":{"baseColorFactor":[1,0.8274509803921568,0.1411764705882353,1],"metallicFactor":0,"roughnessFactor":0.8},"name":"body material","emissiveFactor":[0,0,0],"alphaMode":"OPAQUE","doubleSided":false},{"pbrMetallicRoughness":{"baseColorFactor":[1,0.8274509803921568,0.1411764705882353,1],"metallicFactor":0,"roughnessFactor":0.8},"name":"body_bottom_part material","emissiveFactor":[0,0,0],"alphaMode":"OPAQUE","doubleSided":false},{"pbrMetallicRoughness":{"baseColorFactor":[1,0.8274509803921568,0.1411764705882353,1],"metallicFactor":0,"roughnessFactor":0.8},"name":"woods material","emissiveFactor":[0,0,0],"alphaMode":"OPAQUE","doubleSided":false},{"pbrMetallicRoughness":{"baseColorFactor":[0.8980392156862745,0.8627450980392157,0.7725490196078432,1],"metallicFactor":0,"roughnessFactor":0.8},"name":"Display_trim material","emissiveFactor":[0,0,0],"alphaMode":"OPAQUE","doubleSided":false},{"pbrMetallicRoughness":{"baseColorFactor":[0.17647058823529413,0.17647058823529413,0.16470588235294117,1],"metallicFactor":0,"roughnessFactor":0.8},"name":"Display material","emissiveFactor":[0,0,0],"alphaMode":"OPAQUE","doubleSided":false},{"pbrMetallicRoughness":{"baseColorFactor":[0.5215686274509804,0.5215686274509804,0.5215686274509804,1],"metallicFactor":0,"roughnessFactor":0.8},"name":"Buttons material","emissiveFactor":[0,0,0],"alphaMode":"OPAQUE","doubleSided":false},{"pbrMetallicRoughness":{"baseColorFactor":[1,1,1,1],"metallicFactor":0,"roughnessFactor":0.8},"name":"Connectors material","emissiveFactor":[0,0,0],"alphaMode":"OPAQUE","doubleSided":false},{"pbrMetallicRoughness":{"baseColorFactor":[1,1,1,1],"metallicFactor":0,"roughnessFactor":0.8},"name":"Legs material","emissiveFactor":[0,0,0],"alphaMode":"OPAQUE","doubleSided":false},{"pbrMetallicRoughness":{"baseColorFactor":[1,1,1,1],"metallicFactor":0,"roughnessFactor":0.8},"name":"display_content material","emissiveFactor":[0,0,0],"alphaMode":"OPAQUE","doubleSided":false},{"pbrMetallicRoughness":{"baseColorFactor":[0.23921568627450981,0.23921568627450981,0.23921568627450981,1],"metallicFactor":0,"roughnessFactor":0.8},"name":"music note material 1","emissiveFactor":[0,0,0],"alphaMode":"OPAQUE","doubleSided":false},{"pbrMetallicRoughness":{"baseColorFactor":[0.23921568627450981,0.23921568627450981,0.23921568627450981,1],"metallicFactor":0,"roughnessFactor":0.8},"name":"music note material 2","emissiveFactor":[0,0,0],"alphaMode":"OPAQUE","doubleSided":false},{"pbrMetallicRoughness":{"baseColorFactor":[0.23921568627450981,0.23921568627450981,0.23921568627450981,1],"metallicFactor":0,"roughnessFactor":0.8},"name":"music note material 3","emissiveFactor":[0,0,0],"alphaMode":"OPAQUE","doubleSided":false},{"pbrMetallicRoughness":{"baseColorFactor":[0.23921568627450981,0.23921568627450981,0.23921568627450981,1],"metallicFactor":0,"roughnessFactor":0.8},"name":"Bass clef material","emissiveFactor":[0,0,0],"alphaMode":"OPAQUE","doubleSided":false},{"pbrMetallicRoughness":{"baseColorFactor":[0.23921568627450981,0.23921568627450981,0.23921568627450981,1],"metallicFactor":0,"roughnessFactor":0.8},"name":"Music material 4","emissiveFactor":[0,0,0],"alphaMode":"OPAQUE","doubleSided":false}],"meshes":[{"primitives":[{"mode":4,"attributes":{"POSITION":1,"NORMAL":2,"TEXCOORD_0":3},"material":0,"indices":0}]},{"primitives":[{"mode":4,"attributes":{"POSITION":5,"NORMAL":6,"TEXCOORD_0":7},"material":1,"indices":4}]},{"primitives":[{"mode":4,"attributes":{"POSITION":9,"NORMAL":10,"TEXCOORD_0":11},"material":2,"indices":8}]},{"primitives":[{"mode":4,"attributes":{"POSITION":13,"NORMAL":14,"TEXCOORD_0":15},"material":3,"indices":12}]},{"primitives":[{"mode":4,"attributes":{"POSITION":17,"NORMAL":18,"TEXCOORD_0":19},"material":4,"indices":16}]},{"primitives":[{"mode":4,"attributes":{"POSITION":21,"NORMAL":22,"TEXCOORD_0":23},"material":5,"indices":20}]},{"primitives":[{"mode":4,"attributes":{"POSITION":25,"NORMAL":26,"TEXCOORD_0":27},"material":6,"indices":24}]},{"primitives":[{"mode":4,"attributes":{"POSITION":29,"NORMAL":30,"TEXCOORD_0":31},"material":7,"indices":28}]},{"primitives":[{"mode":4,"attributes":{"POSITION":33,"NORMAL":34,"TEXCOORD_0":35},"material":8,"indices":32}]},{"primitives":[{"mode":4,"attributes":{"POSITION":37,"NORMAL":38,"TEXCOORD_0":39},"material":9,"indices":36}]},{"primitives":[{"mode":4,"attributes":{"POSITION":41,"NORMAL":42,"TEXCOORD_0":43},"material":10,"indices":40}]},{"primitives":[{"mode":4,"attributes":{"POSITION":45,"NORMAL":46,"TEXCOORD_0":47},"material":11,"indices":44}]},{"primitives":[{"mode":4,"attributes":{"POSITION":49,"NORMAL":50,"TEXCOORD_0":51},"material":12,"indices":48}]},{"primitives":[{"mode":4,"attributes":{"POSITION":53,"NORMAL":54,"TEXCOORD_0":55},"material":13,"indices":52}]},{"primitives":[{"mode":4,"attributes":{"POSITION":57,"NORMAL":58,"TEXCOORD_0":59},"material":14,"indices":56}]},{"primitives":[{"mode":4,"attributes":{"POSITION":61,"NORMAL":62,"TEXCOORD_0":63},"material":15,"indices":60}]},{"primitives":[{"mode":4,"attributes":{"POSITION":65,"NORMAL":66,"TEXCOORD_0":67},"material":16,"indices":64}]},{"primitives":[{"mode":4,"attributes":{"POSITION":69,"NORMAL":70,"TEXCOORD_0":71},"material":17,"indices":68}]}],"accessors":[{"bufferView":0,"byteOffset":0,"componentType":5125,"count":4752,"type":"SCALAR"},{"bufferView":1,"byteOffset":0,"componentType":5126,"count":4752,"max":[57.7916374206543,19.119800567626953,1.8333156108856201],"min":[-57.7916374206543,-6.949141025543213,-2.8857693672180176],"type":"VEC3"},{"bufferView":2,"byteOffset":0,"componentType":5126,"count":4752,"type":"VEC3"},{"bufferView":3,"byteOffset":0,"componentType":5126,"count":4752,"type":"VEC2"},{"bufferView":4,"byteOffset":0,"componentType":5125,"count":1980,"type":"SCALAR"},{"bufferView":5,"byteOffset":0,"componentType":5126,"count":1980,"max":[53.86103820800781,10.25373649597168,3.382418632507324],"min":[-48.60271072387695,-3.9437448978424072,0.7947959899902344],"type":"VEC3"},{"bufferView":6,"byteOffset":0,"componentType":5126,"count":1980,"type":"VEC3"},{"bufferView":7,"byteOffset":0,"componentType":5126,"count":1980,"type":"VEC2"},{"bufferView":8,"byteOffset":0,"componentType":5125,"count":31020,"type":"SCALAR"},{"bufferView":9,"byteOffset":0,"componentType":5126,"count":31020,"max":[52.86195373535156,0,11.291204452514648],"min":[-51.92176818847656,-19.765260696411133,0],"type":"VEC3"},{"bufferView":10,"byteOffset":0,"componentType":5126,"count":31020,"type":"VEC3"},{"bufferView":11,"byteOffset":0,"componentType":5126,"count":31020,"type":"VEC2"},{"bufferView":12,"byteOffset":0,"componentType":5125,"count":13824,"type":"SCALAR"},{"bufferView":13,"byteOffset":0,"componentType":5126,"count":13824,"max":[52.95949935913086,-8.969654083251953,10.97675609588623],"min":[-51.72457504272461,-19.45081329345703,0.4955972731113434],"type":"VEC3"},{"bufferView":14,"byteOffset":0,"componentType":5126,"count":13824,"type":"VEC3"},{"bufferView":15,"byteOffset":0,"componentType":5126,"count":13824,"type":"VEC2"},{"bufferView":16,"byteOffset":0,"componentType":5125,"count":210,"type":"SCALAR"},{"bufferView":17,"byteOffset":0,"componentType":5126,"count":210,"max":[57.71012878417969,11.627342224121094,12.580282211303711],"min":[-57.71012878417969,-11.627342224121094,0],"type":"VEC3"},{"bufferView":18,"byteOffset":0,"componentType":5126,"count":210,"type":"VEC3"},{"bufferView":19,"byteOffset":0,"componentType":5126,"count":210,"type":"VEC2"},{"bufferView":20,"byteOffset":0,"componentType":5125,"count":156,"type":"SCALAR"},{"bufferView":21,"byteOffset":0,"componentType":5126,"count":156,"max":[57.84158706665039,19.71872329711914,4.075202941894531],"min":[-57.578670501708984,-24.451217651367188,-3.687664270401001],"type":"VEC3"},{"bufferView":22,"byteOffset":0,"componentType":5126,"count":156,"type":"VEC3"},{"bufferView":23,"byteOffset":0,"componentType":5126,"count":156,"type":"VEC2"},{"bufferView":24,"byteOffset":0,"componentType":5125,"count":336,"type":"SCALAR"},{"bufferView":25,"byteOffset":0,"componentType":5126,"count":336,"max":[60.733673095703125,20.758821487426758,10.636543273925781],"min":[-60.47075653076172,-27.22156524658203,-4.469577312469482],"type":"VEC3"},{"bufferView":26,"byteOffset":0,"componentType":5126,"count":336,"type":"VEC3"},{"bufferView":27,"byteOffset":0,"componentType":5126,"count":336,"type":"VEC2"},{"bufferView":28,"byteOffset":0,"componentType":5125,"count":36,"type":"SCALAR"},{"bufferView":29,"byteOffset":0,"componentType":5126,"count":36,"max":[19.832828521728516,-9.237565040588379,8.304211616516113],"min":[-13.838074684143066,-19.34117889404297,6.471948623657227],"type":"VEC3"},{"bufferView":30,"byteOffset":0,"componentType":5126,"count":36,"type":"VEC3"},{"bufferView":31,"byteOffset":0,"componentType":5126,"count":36,"type":"VEC2"},{"bufferView":32,"byteOffset":0,"componentType":5125,"count":36,"type":"SCALAR"},{"bufferView":33,"byteOffset":0,"componentType":5126,"count":36,"max":[12.200106620788574,-11.807572364807129,7.951904773712158],"min":[-1.6085221767425537,-16.88290786743164,6.121481418609619],"type":"VEC3"},{"bufferView":34,"byteOffset":0,"componentType":5126,"count":36,"type":"VEC3"},{"bufferView":35,"byteOffset":0,"componentType":5126,"count":36,"type":"VEC2"},{"bufferView":36,"byteOffset":0,"componentType":5125,"count":1320,"type":"SCALAR"},{"bufferView":37,"byteOffset":0,"componentType":5126,"count":1320,"max":[37.685638427734375,-9.51546859741211,8.63943099975586],"min":[-51.232398986816406,-18.56899070739746,7.197333812713623],"type":"VEC3"},{"bufferView":38,"byteOffset":0,"componentType":5126,"count":1320,"type":"VEC3"},{"bufferView":39,"byteOffset":0,"componentType":5126,"count":1320,"type":"VEC2"},{"bufferView":40,"byteOffset":0,"componentType":5125,"count":16680,"type":"SCALAR"},{"bufferView":41,"byteOffset":0,"componentType":5126,"count":16680,"max":[32.74570083618164,-24.323440551757812,-0.20349723100662231],"min":[-37.45637130737305,-25.253114700317383,-2.095180034637451],"type":"VEC3"},{"bufferView":42,"byteOffset":0,"componentType":5126,"count":16680,"type":"VEC3"},{"bufferView":43,"byteOffset":0,"componentType":5126,"count":16680,"type":"VEC2"},{"bufferView":44,"byteOffset":0,"componentType":5125,"count":1392,"type":"SCALAR"},{"bufferView":45,"byteOffset":0,"componentType":5126,"count":1392,"max":[55.07150650024414,16.385208129882812,-2.8994412422180176],"min":[-54.68659210205078,-21.730823516845703,-4.674388885498047],"type":"VEC3"},{"bufferView":46,"byteOffset":0,"componentType":5126,"count":1392,"type":"VEC3"},{"bufferView":47,"byteOffset":0,"componentType":5126,"count":1392,"type":"VEC2"},{"bufferView":48,"byteOffset":0,"componentType":5125,"count":3984,"type":"SCALAR"},{"bufferView":49,"byteOffset":0,"componentType":5126,"count":3984,"max":[7.191024303436279,-12.789827346801758,7.856991767883301],"min":[2.847121000289917,-15.722396850585938,6.925478458404541],"type":"VEC3"},{"bufferView":50,"byteOffset":0,"componentType":5126,"count":3984,"type":"VEC3"},{"bufferView":51,"byteOffset":0,"componentType":5126,"count":3984,"type":"VEC2"},{"bufferView":52,"byteOffset":0,"componentType":5125,"count":1044,"type":"SCALAR"},{"bufferView":53,"byteOffset":0,"componentType":5126,"count":1044,"max":[50.01300048828125,-11.234999656677246,152.7270050048828],"min":[40.01300048828125,-12.234999656677246,143.17300415039062],"type":"VEC3"},{"bufferView":54,"byteOffset":0,"componentType":5126,"count":1044,"type":"VEC3"},{"bufferView":55,"byteOffset":0,"componentType":5126,"count":1044,"type":"VEC2"},{"bufferView":56,"byteOffset":0,"componentType":5125,"count":1044,"type":"SCALAR"},{"bufferView":57,"byteOffset":0,"componentType":5126,"count":1044,"max":[-17.98699951171875,-11.234999656677246,185.7270050048828],"min":[-27.98699951171875,-12.234999656677246,176.17300415039062],"type":"VEC3"},{"bufferView":58,"byteOffset":0,"componentType":5126,"count":1044,"type":"VEC3"},{"bufferView":59,"byteOffset":0,"componentType":5126,"count":1044,"type":"VEC2"},{"bufferView":60,"byteOffset":0,"componentType":5125,"count":1044,"type":"SCALAR"},{"bufferView":61,"byteOffset":0,"componentType":5126,"count":1044,"max":[-9.987000465393066,-11.234999656677246,54.72700119018555],"min":[-19.98699951171875,-12.234999656677246,45.17300033569336],"type":"VEC3"},{"bufferView":62,"byteOffset":0,"componentType":5126,"count":1044,"type":"VEC3"},{"bufferView":63,"byteOffset":0,"componentType":5126,"count":1044,"type":"VEC2"},{"bufferView":64,"byteOffset":0,"componentType":5125,"count":3192,"type":"SCALAR"},{"bufferView":65,"byteOffset":0,"componentType":5126,"count":3192,"max":[-69.4990005493164,-1.649999976158142,118.70700073242188],"min":[-93.04299926757812,-4.349999904632568,91.70700073242188],"type":"VEC3"},{"bufferView":66,"byteOffset":0,"componentType":5126,"count":3192,"type":"VEC3"},{"bufferView":67,"byteOffset":0,"componentType":5126,"count":3192,"type":"VEC2"},{"bufferView":68,"byteOffset":0,"componentType":5125,"count":1116,"type":"SCALAR"},{"bufferView":69,"byteOffset":0,"componentType":5126,"count":1116,"max":[36.56700134277344,18,238.1510009765625],"min":[21.020999908447266,16,218.1510009765625],"type":"VEC3"},{"bufferView":70,"byteOffset":0,"componentType":5126,"count":1116,"type":"VEC3"},{"bufferView":71,"byteOffset":0,"componentType":5126,"count":1116,"type":"VEC2"}],"bufferViews":[{"buffer":0,"byteOffset":0,"byteLength":19008,"target":34963},{"buffer":0,"byteOffset":19008,"byteLength":57024,"target":34962},{"buffer":0,"byteOffset":76032,"byteLength":57024,"target":34962},{"buffer":0,"byteOffset":133056,"byteLength":38016,"target":34962},{"buffer":0,"byteOffset":171072,"byteLength":7920,"target":34963},{"buffer":0,"byteOffset":178992,"byteLength":23760,"target":34962},{"buffer":0,"byteOffset":202752,"byteLength":23760,"target":34962},{"buffer":0,"byteOffset":226512,"byteLength":15840,"target":34962},{"buffer":0,"byteOffset":242352,"byteLength":124080,"target":34963},{"buffer":0,"byteOffset":366432,"byteLength":372240,"target":34962},{"buffer":0,"byteOffset":738672,"byteLength":372240,"target":34962},{"buffer":0,"byteOffset":1110912,"byteLength":248160,"target":34962},{"buffer":0,"byteOffset":1359072,"byteLength":55296,"target":34963},{"buffer":0,"byteOffset":1414368,"byteLength":165888,"target":34962},{"buffer":0,"byteOffset":1580256,"byteLength":165888,"target":34962},{"buffer":0,"byteOffset":1746144,"byteLength":110592,"target":34962},{"buffer":0,"byteOffset":1856736,"byteLength":840,"target":34963},{"buffer":0,"byteOffset":1857576,"byteLength":2520,"target":34962},{"buffer":0,"byteOffset":1860096,"byteLength":2520,"target":34962},{"buffer":0,"byteOffset":1862616,"byteLength":1680,"target":34962},{"buffer":0,"byteOffset":1864296,"byteLength":624,"target":34963},{"buffer":0,"byteOffset":1864920,"byteLength":1872,"target":34962},{"buffer":0,"byteOffset":1866792,"byteLength":1872,"target":34962},{"buffer":0,"byteOffset":1868664,"byteLength":1248,"target":34962},{"buffer":0,"byteOffset":1869912,"byteLength":1344,"target":34963},{"buffer":0,"byteOffset":1871256,"byteLength":4032,"target":34962},{"buffer":0,"byteOffset":1875288,"byteLength":4032,"target":34962},{"buffer":0,"byteOffset":1879320,"byteLength":2688,"target":34962},{"buffer":0,"byteOffset":1882008,"byteLength":144,"target":34963},{"buffer":0,"byteOffset":1882152,"byteLength":432,"target":34962},{"buffer":0,"byteOffset":1882584,"byteLength":432,"target":34962},{"buffer":0,"byteOffset":1883016,"byteLength":288,"target":34962},{"buffer":0,"byteOffset":1883304,"byteLength":144,"target":34963},{"buffer":0,"byteOffset":1883448,"byteLength":432,"target":34962},{"buffer":0,"byteOffset":1883880,"byteLength":432,"target":34962},{"buffer":0,"byteOffset":1884312,"byteLength":288,"target":34962},{"buffer":0,"byteOffset":1884600,"byteLength":5280,"target":34963},{"buffer":0,"byteOffset":1889880,"byteLength":15840,"target":34962},{"buffer":0,"byteOffset":1905720,"byteLength":15840,"target":34962},{"buffer":0,"byteOffset":1921560,"byteLength":10560,"target":34962},{"buffer":0,"byteOffset":1932120,"byteLength":66720,"target":34963},{"buffer":0,"byteOffset":1998840,"byteLength":200160,"target":34962},{"buffer":0,"byteOffset":2199000,"byteLength":200160,"target":34962},{"buffer":0,"byteOffset":2399160,"byteLength":133440,"target":34962},{"buffer":0,"byteOffset":2532600,"byteLength":5568,"target":34963},{"buffer":0,"byteOffset":2538168,"byteLength":16704,"target":34962},{"buffer":0,"byteOffset":2554872,"byteLength":16704,"target":34962},{"buffer":0,"byteOffset":2571576,"byteLength":11136,"target":34962},{"buffer":0,"byteOffset":2582712,"byteLength":15936,"target":34963},{"buffer":0,"byteOffset":2598648,"byteLength":47808,"target":34962},{"buffer":0,"byteOffset":2646456,"byteLength":47808,"target":34962},{"buffer":0,"byteOffset":2694264,"byteLength":31872,"target":34962},{"buffer":0,"byteOffset":2726136,"byteLength":4176,"target":34963},{"buffer":0,"byteOffset":2730312,"byteLength":12528,"target":34962},{"buffer":0,"byteOffset":2742840,"byteLength":12528,"target":34962},{"buffer":0,"byteOffset":2755368,"byteLength":8352,"target":34962},{"buffer":0,"byteOffset":2763720,"byteLength":4176,"target":34963},{"buffer":0,"byteOffset":2767896,"byteLength":12528,"target":34962},{"buffer":0,"byteOffset":2780424,"byteLength":12528,"target":34962},{"buffer":0,"byteOffset":2792952,"byteLength":8352,"target":34962},{"buffer":0,"byteOffset":2801304,"byteLength":4176,"target":34963},{"buffer":0,"byteOffset":2805480,"byteLength":12528,"target":34962},{"buffer":0,"byteOffset":2818008,"byteLength":12528,"target":34962},{"buffer":0,"byteOffset":2830536,"byteLength":8352,"target":34962},{"buffer":0,"byteOffset":2838888,"byteLength":12768,"target":34963},{"buffer":0,"byteOffset":2851656,"byteLength":38304,"target":34962},{"buffer":0,"byteOffset":2889960,"byteLength":38304,"target":34962},{"buffer":0,"byteOffset":2928264,"byteLength":25536,"target":34962},{"buffer":0,"byteOffset":2953800,"byteLength":4464,"target":34963},{"buffer":0,"byteOffset":2958264,"byteLength":13392,"target":34962},{"buffer":0,"byteOffset":2971656,"byteLength":13392,"target":34962},{"buffer":0,"byteOffset":2985048,"byteLength":8928,"target":34962}],"scenes":[{"nodes":[0,14,15,16,17,18],"name":"iPhone music theme mockup - place your app image (copy)"}],"buffers":[{"byteLength":2993976,"uri":"iPhonemusic%20theme%20mockup%20-%20place%20your%20app%20image%20(copy).bin"}]}
